<?xml version="1.0" standalone="no"?>
<!DOCTYPE svg PUBLIC "-//W3C//DTD SVG 20010904//EN"
 "http://www.w3.org/TR/2001/REC-SVG-20010904/DTD/svg10.dtd">
<svg version="1.0" xmlns="http://www.w3.org/2000/svg"
 width="440.000000pt" height="250.000000pt" viewBox="0 0 440.000000 250.000000"
 preserveAspectRatio="xMidYMid meet">

<g transform="translate(0.000000,250.000000) scale(0.100000,-0.100000)"
fill="#636364" stroke="none">
<path d="M1763 2186 c-334 -64 -592 -303 -668 -621 l-17 -70 -86 -1 c-254 -2
-474 -164 -558 -409 -34 -101 -39 -245 -10 -340 56 -189 195 -338 379 -407
l62 -23 1425 -3 c1576 -3 1465 -7 1560 63 96 70 157 203 147 318 -15 168 -168
317 -326 317 l-48 0 -21 85 c-51 206 -177 363 -360 447 -161 73 -299 77 -519
12 -19 -5 -23 0 -37 48 -23 79 -87 205 -141 276 -173 229 -507 360 -782 308z
m437 -916 c0 -31 -4 -40 -17 -40 -9 0 -25 -7 -35 -17 -15 -14 -18 -32 -18
-127 0 -70 -5 -120 -13 -136 -11 -20 -10 -30 0 -50 8 -16 13 -64 13 -132 0
-95 2 -110 20 -128 11 -11 27 -20 35 -20 11 0 15 -11 15 -40 0 -46 -15 -51
-74 -26 -64 27 -76 55 -76 178 0 120 -7 143 -45 152 -21 5 -25 12 -25 46 0 33
3 40 19 40 38 0 51 37 51 148 0 115 12 152 58 176 15 9 42 15 60 16 31 0 32
-1 32 -40z m1137 20 c48 -29 56 -54 61 -180 4 -119 11 -140 43 -140 15 0 19
-7 19 -37 0 -31 -5 -41 -29 -54 -28 -16 -28 -18 -33 -130 -7 -156 -27 -191
-117 -205 l-41 -7 0 39 c0 34 5 41 33 54 l32 15 5 120 c3 66 10 129 17 140 9
16 8 26 -3 45 -9 17 -13 61 -14 137 0 118 -9 143 -51 143 -16 0 -19 7 -19 40
0 38 1 40 33 40 17 0 46 -9 64 -20z m-2308 -317 c52 -142 97 -264 99 -271 3
-10 -7 -12 -43 -10 -48 3 -48 3 -65 53 l-17 50 -104 3 -105 3 -18 -56 -17 -55
-45 0 c-24 0 -44 3 -44 8 0 4 43 125 96 270 l97 262 36 0 36 0 94 -257z m477
231 c55 -41 69 -70 69 -144 0 -74 -14 -103 -69 -144 -22 -17 -46 -22 -122 -24
l-94 -4 0 -99 0 -99 -45 0 -45 0 0 271 0 271 139 -4 c122 -3 143 -6 167 -24z
m244 -244 l0 -270 -45 0 -45 0 0 270 0 270 45 0 45 0 0 -270z m750 90 c26 -26
27 -89 1 -121 -19 -23 -19 -24 5 -71 13 -26 24 -50 24 -53 0 -3 -13 -5 -28 -5
-24 0 -32 8 -55 55 -19 39 -32 55 -47 55 -18 0 -20 -7 -20 -55 0 -52 -1 -55
-25 -55 l-25 0 0 135 0 135 75 0 c62 0 79 -4 95 -20z m250 0 c0 -18 -7 -20
-65 -20 l-65 0 0 -40 0 -40 55 0 c48 0 55 -2 55 -20 0 -18 -7 -20 -55 -20
l-55 0 0 -35 0 -35 65 0 c58 0 65 -2 65 -20 0 -19 -7 -20 -90 -20 l-90 0 0
135 0 135 90 0 c83 0 90 -1 90 -20z m205 8 c29 -13 31 -21 10 -38 -12 -10 -21
-10 -45 0 -24 10 -37 10 -56 1 -41 -18 -26 -43 36 -64 30 -10 60 -23 67 -29
21 -17 16 -92 -7 -113 -27 -25 -97 -31 -143 -12 -39 17 -42 23 -28 46 8 12 14
13 36 3 37 -17 81 -15 100 5 16 16 16 18 -4 34 -11 10 -39 20 -61 24 -67 11
-92 75 -49 129 17 22 28 26 69 26 27 0 61 -5 75 -12z m235 -8 c0 -17 -7 -20
-40 -20 l-40 0 0 -115 0 -115 -25 0 -25 0 0 115 0 115 -35 0 c-28 0 -35 4 -35
20 0 19 7 20 100 20 93 0 100 -1 100 -20z"/>
<path d="M859 985 l-35 -105 73 0 c40 0 73 4 73 9 0 12 -62 184 -69 193 -3 4
-22 -40 -42 -97z"/>
<path d="M1290 1059 l0 -91 81 4 c70 3 83 6 100 27 19 23 25 74 13 106 -11 28
-60 45 -129 45 l-65 0 0 -91z"/>
<path d="M2380 990 l0 -41 36 3 c22 2 42 10 48 21 17 26 -5 51 -48 55 l-36 3
0 -41z"/>
</g>
</svg>
